чтоб<?xml version="1.0" standalone="no"?>
<!DOCTYPE svg PUBLIC "-//W3C//DTD SVG 20010904//EN"
 "http://www.w3.org/TR/2001/REC-SVG-20010904/DTD/svg10.dtd">
<svg version="1.0" xmlns="http://www.w3.org/2000/svg"
 width="2048.000000pt" height="2048.000000pt" viewBox="0 0 2048.000000 2048.000000"
 preserveAspectRatio="xMidYMid meet">
<metadata>
Created by potrace 1.16, written by Peter Selinger 2001-2019
</metadata>
<g transform="translate(0.000000,2048.000000) scale(0.100000,-0.100000)"
fill="#FFB703" stroke="none">
<path d="M0 10240 l0 -10240 10240 0 10240 0 0 10240 0 10240 -10240 0 -10240
0 0 -10240z m12615 6265 c311 -437 430 -656 511 -943 52 -183 64 -259 64 -390
0 -149 -18 -232 -75 -348 -80 -165 -181 -274 -412 -445 -72 -54 -134 -107
-138 -119 -9 -29 1 -96 40 -280 90 -416 119 -660 155 -1320 11 -201 25 -387
30 -415 42 -209 202 -513 432 -817 49 -65 91 -125 95 -134 12 -32 -32 3 -93
73 -32 37 -94 106 -138 153 -139 151 -312 391 -381 530 -82 164 -103 257 -170
765 -71 546 -84 633 -110 770 -31 159 -82 354 -135 515 -31 92 -38 125 -30
140 12 21 78 77 132 109 126 75 397 315 478 422 139 186 191 387 170 666 -13
168 -38 267 -120 472 -91 230 -107 259 -307 564 -68 104 -123 191 -123 195 1
9 16 -10 125 -163z m-445 -387 c104 -219 92 -464 -36 -746 -58 -126 -134 -242
-260 -392 -191 -228 -311 -336 -602 -543 -203 -145 -297 -202 -466 -282 -130
-62 -209 -97 -521 -232 -166 -71 -316 -148 -385 -197 -64 -46 -81 -53 -40 -17
42 37 204 146 280 189 78 43 208 94 222 86 6 -4 8 -3 5 3 -3 5 13 19 37 31 34
16 46 18 56 9 8 -8 11 -8 7 -1 -4 6 5 16 19 23 14 6 23 7 19 1 -3 -5 0 -7 9
-4 8 3 13 11 10 17 -2 7 29 30 73 53 283 147 365 191 418 222 108 64 329 214
405 276 152 123 480 459 480 492 0 5 -25 -18 -56 -51 l-55 -60 57 70 c31 39
59 72 63 75 3 3 3 1 -1 -5 -11 -13 -10 -27 2 -20 20 13 140 194 188 285 148
280 158 483 38 763 -31 71 -5 37 34 -45z m-1434 -12 c127 -58 214 -152 290
-311 46 -96 90 -255 99 -359 l5 -61 -20 70 c-11 39 -44 117 -72 175 -46 94
-62 116 -152 205 -56 55 -128 116 -161 135 -58 34 -61 35 -170 34 -124 0 -172
-13 -330 -88 -153 -72 -260 -181 -341 -343 -36 -70 -36 -73 -32 -171 4 -119
10 -129 115 -215 147 -118 162 -135 179 -196 28 -104 44 -131 86 -148 28 -11
52 -34 84 -79 56 -79 94 -111 141 -120 41 -8 96 15 153 62 56 48 178 201 211
266 17 33 32 58 35 55 7 -7 -62 -182 -91 -227 -65 -103 -150 -169 -252 -195
-96 -25 -152 -4 -213 77 -26 35 -27 38 -4 13 36 -40 84 -75 102 -75 8 0 -3 13
-26 30 -22 16 -51 43 -63 60 -13 16 -49 51 -82 77 -70 56 -81 76 -106 185 -19
79 -22 85 -72 128 -230 195 -231 196 -237 314 -5 97 15 202 54 281 68 138 301
293 579 385 39 13 65 25 58 27 -40 14 -331 -115 -471 -208 -41 -26 -68 -41
-61 -33 24 29 193 136 283 178 224 107 361 127 482 72z m-1441 -960 c18 -10
17 -11 -15 -14 -248 -22 -460 -195 -499 -407 -23 -124 -6 -287 41 -388 l22
-48 -37 -30 c-132 -109 -109 -257 53 -339 68 -34 173 -63 203 -56 12 3 6 -1
-13 -10 -80 -37 -221 -10 -313 60 -41 32 -87 97 -87 126 0 8 13 -6 28 -32 29
-51 73 -88 137 -117 79 -36 88 -31 15 8 -115 62 -160 125 -160 224 0 40 19 85
44 106 9 8 16 18 16 24 0 6 -17 -4 -37 -23 -37 -34 -37 -34 2 8 29 31 50 43
73 45 18 1 32 3 32 5 0 2 -7 17 -16 34 -59 114 -94 303 -75 410 33 190 217
392 391 428 53 10 167 3 195 -14z m198 -78 c144 -97 244 -190 327 -305 91
-127 120 -193 120 -271 0 -74 -5 -85 -81 -176 -81 -95 -89 -117 -89 -226 0
-69 -3 -91 -12 -87 -20 6 -16 163 4 210 10 20 17 40 17 44 -1 3 6 10 15 15 9
5 13 14 10 20 -4 7 -2 8 4 4 7 -4 12 -3 12 3 0 6 18 29 41 53 22 24 45 54 51
68 18 44 10 109 -20 174 -38 80 -137 211 -195 259 -26 21 -47 44 -47 52 0 22
-107 111 -217 182 -57 36 -103 70 -103 75 0 12 28 -4 163 -94z m2479 -466 c48
-62 88 -122 88 -132 0 -11 -36 -49 -90 -95 -88 -74 -140 -131 -140 -152 0 -11
47 -25 150 -43 88 -16 91 -19 74 -83 -18 -66 -112 -472 -158 -682 -84 -380
-154 -684 -161 -695 -41 -66 -116 327 -190 993 -28 258 -13 194 25 -108 52
-404 76 -568 102 -705 38 -196 31 -87 -11 175 -22 138 -52 345 -66 460 -14
116 -32 264 -40 330 -8 66 -19 179 -25 250 -6 72 -13 147 -15 168 -5 36 -2 40
136 185 77 81 150 161 161 177 21 31 -138 -126 -255 -252 -37 -40 -67 -67 -67
-61 0 18 363 386 379 384 8 0 54 -52 103 -114z m-572 -560 c28 -21 25 -6 65
-352 77 -668 184 -1177 303 -1448 79 -181 253 -474 354 -596 27 -32 46 -61 42
-65 -11 -11 -148 144 -220 250 -179 263 -295 497 -335 674 -11 50 -36 142 -55
205 -52 172 -68 251 -134 677 -33 215 -67 412 -75 440 -20 66 -44 87 -90 80
-63 -10 -393 -181 -486 -251 -119 -90 -278 -258 -320 -340 -44 -84 -50 -78 -8
9 100 205 375 437 819 692 41 24 68 43 60 43 -19 0 -197 -99 -312 -173 -49
-31 -88 -54 -88 -52 0 9 224 151 306 195 87 46 125 48 174 12z m-1970 -399
c23 -319 56 -473 209 -973 96 -309 121 -411 121 -483 0 -45 -16 -104 -32 -122
-5 -5 -4 3 1 18 6 16 11 46 11 67 0 62 -53 241 -123 415 -74 184 -162 441
-184 535 -10 46 -16 156 -20 370 -6 310 2 387 17 173z m1271 -588 c56 -75 73
-138 73 -260 -1 -132 -18 -206 -104 -435 -33 -88 -60 -163 -60 -169 0 -6 -20
-80 -45 -165 -25 -86 -52 -197 -61 -248 -54 -311 67 -599 408 -968 167 -182
500 -497 668 -632 287 -231 343 -288 401 -405 56 -112 55 -261 0 -374 -39 -78
-58 -104 -159 -219 -130 -148 -302 -374 -429 -562 -254 -379 -939 -1318 -1033
-1418 l-42 -45 34 45 c88 114 528 722 601 829 28 42 51 79 49 84 -1 4 2 7 6 7
4 0 8 9 9 20 1 10 32 68 68 127 37 59 108 178 158 263 134 225 328 493 578
796 88 107 104 144 102 236 -1 43 -6 85 -12 95 -7 13 -8 0 -6 -47 l4 -65 -8
58 c-5 34 -19 73 -35 97 -30 45 -163 151 -356 282 -455 309 -793 618 -979 896
-49 73 -148 274 -156 317 -3 17 5 3 18 -30 53 -131 147 -290 236 -395 91 -108
261 -288 313 -331 29 -24 -18 30 -104 119 -234 242 -352 412 -412 594 -65 194
-58 438 19 675 16 49 25 99 25 142 0 68 39 322 65 423 8 31 37 103 65 159 63
125 90 225 90 334 0 92 -10 131 -51 193 -16 24 -29 45 -29 48 0 15 66 -36 91
-71z m-1351 -1019 c-17 -32 -30 -70 -30 -84 0 -63 93 -189 179 -243 24 -16 79
-40 122 -54 44 -15 79 -28 79 -31 0 -8 -67 10 -145 38 -166 59 -273 187 -251
301 6 32 64 142 71 135 2 -2 -9 -30 -25 -62z m264 -581 c-316 -104 -477 -232
-602 -481 -52 -103 -62 -159 -72 -424 -20 -508 -55 -651 -198 -832 -99 -124
-173 -166 -358 -203 -145 -30 -198 -47 -304 -100 -203 -101 -306 -212 -554
-594 -153 -234 -319 -532 -376 -673 -34 -85 -35 -64 -2 28 23 64 222 465 279
564 44 77 72 115 81 113 6 -2 9 3 6 11 -3 8 0 17 7 22 8 5 10 3 5 -7 -4 -8 -1
-6 6 4 116 163 189 261 227 305 61 71 196 183 274 226 64 35 231 95 270 97 29
1 127 37 107 39 -16 2 25 17 50 19 13 1 13 0 0 -10 -12 -8 -10 -9 8 -5 53 14
61 18 59 29 -1 6 13 19 31 28 46 24 69 45 112 109 101 149 124 231 151 550 12
135 21 253 21 263 0 9 7 17 16 17 14 0 14 2 3 9 -11 7 -13 28 -7 103 11 144
63 327 89 311 6 -4 8 1 4 11 -4 10 2 35 14 58 22 43 147 174 157 164 3 -3 34
21 68 54 45 43 89 73 151 102 102 49 384 148 397 141 4 -3 -50 -25 -120 -48z
m3344 -332 c100 -156 168 -418 217 -838 26 -223 38 -552 27 -730 -11 -184 -11
-184 -179 -620 -162 -422 -299 -829 -393 -1175 -56 -203 -147 -637 -155 -740
-9 -104 -15 -130 -29 -130 -17 0 -83 72 -115 124 -22 36 -24 45 -18 140 12
199 68 376 444 1411 66 182 128 355 138 385 10 30 48 127 86 215 95 224 103
259 102 495 0 226 -14 442 -49 765 -45 415 -83 644 -119 728 -15 36 14 15 43
-30z m-2833 -1158 c61 -19 292 -93 515 -165 223 -71 477 -149 566 -174 185
-52 255 -75 268 -86 5 -5 -9 -23 -30 -42 -121 -105 -275 -248 -312 -292 -113
-130 -262 -380 -663 -1115 -128 -234 -169 -307 -169 -299 0 4 25 62 56 130 31
68 67 150 80 183 19 50 65 156 149 340 8 17 37 82 65 145 28 63 64 138 79 165
16 28 48 86 71 130 24 44 52 94 64 110 50 74 175 226 240 293 90 93 140 124
77 48 -15 -18 -15 -19 3 -12 17 6 17 5 5 -10 -29 -36 25 3 101 73 42 37 92 82
113 100 43 38 45 43 15 43 -38 0 -68 12 -61 23 4 6 -3 8 -19 4 -66 -17 -306
30 -599 118 -119 36 -303 87 -408 114 -105 28 -200 55 -210 60 -10 6 -22 22
-25 37 -6 21 -10 24 -19 15 -9 -9 -8 -14 3 -22 13 -9 13 -10 0 -6 -8 2 -15 14
-15 27 0 13 -6 25 -13 27 -8 3 -10 -1 -5 -13 4 -12 3 -15 -6 -10 -7 5 -10 14
-7 21 2 7 -2 16 -11 19 -9 4 -13 9 -9 13 3 3 -1 15 -11 25 -24 26 -6 24 122
-17z m-640 -343 c-77 -148 -211 -270 -530 -482 -196 -131 -427 -309 -690 -534
-153 -131 -591 -558 -690 -674 -78 -90 -130 -188 -151 -284 -20 -87 -46 -141
-110 -228 -81 -110 -277 -290 -317 -290 -5 0 13 17 40 39 48 38 119 110 96 97
-21 -11 34 77 83 134 26 30 53 65 61 77 9 13 19 20 24 17 5 -3 6 1 3 9 -3 8 0
18 7 23 8 5 10 3 4 -6 -6 -9 -4 -11 4 -6 7 5 10 15 7 23 -3 8 -2 12 3 9 12 -8
48 62 71 135 41 134 96 206 389 502 304 308 570 541 960 840 106 81 128 102
80 77 -15 -9 -19 -7 -19 5 0 9 5 13 11 10 6 -4 5 2 -3 14 -15 24 -33 28 -24 5
4 -9 2 -13 -5 -8 -6 3 -9 17 -6 30 2 14 0 27 -5 30 -10 7 9 34 24 34 6 0 5 -7
-2 -15 -7 -9 -10 -19 -6 -23 4 -4 13 1 20 11 7 9 19 17 27 17 9 0 8 -4 -4 -12
-12 -10 -14 -17 -7 -28 9 -13 12 -12 25 4 16 21 42 29 59 19 6 -4 22 -8 35 -9
17 -2 21 0 13 5 -11 6 -10 10 3 15 9 3 22 3 28 -1 7 -3 9 -3 5 2 -8 8 6 23 42
44 24 13 24 13 10 -4 -14 -17 -14 -18 8 -6 13 7 27 23 32 37 5 13 16 24 24 24
7 0 17 7 20 16 4 9 13 14 21 10 9 -3 15 1 15 10 0 10 6 14 14 11 16 -6 63 30
58 45 -1 5 1 7 6 4 13 -8 52 22 48 37 -1 6 -1 9 2 4 12 -21 137 126 183 216
11 20 24 37 30 37 5 0 -6 -31 -26 -68z m-2709 -1713 c-86 -76 -107 -151 -76
-270 11 -43 25 -111 30 -150 10 -69 9 -75 -18 -133 -16 -34 -58 -99 -93 -146
-36 -47 -82 -114 -104 -150 -21 -36 -45 -75 -52 -87 -14 -23 -38 -28 -80 -17
-39 11 -25 25 16 18 39 -6 40 -6 65 44 14 27 22 53 18 57 -4 5 -2 5 4 2 10 -6
79 85 79 104 0 3 19 30 41 60 86 112 94 160 55 322 -28 116 -27 156 5 220 38
75 61 105 107 138 56 41 58 36 3 -12z m1271 -1531 c6 -7 29 -58 51 -113 22
-55 84 -201 137 -325 54 -124 141 -333 195 -465 108 -265 207 -483 256 -561
35 -56 107 -101 143 -89 18 5 36 -16 24 -29 -10 -10 -483 -7 -483 3 0 5 13 12
29 16 41 9 71 41 71 76 0 27 -93 286 -146 407 l-23 52 -299 0 c-228 0 -302 -3
-310 -12 -31 -38 -152 -379 -152 -429 0 -50 50 -87 108 -80 6 1 12 -5 12 -12
0 -12 -26 -15 -132 -19 -191 -6 -308 1 -308 18 0 9 10 12 32 10 41 -5 89 11
111 38 39 47 91 155 201 416 110 263 262 618 306 715 11 25 24 45 29 45 4 0
25 15 45 34 20 19 36 32 36 28 0 -4 -56 -153 -125 -331 -69 -178 -125 -330
-125 -337 0 -10 57 -13 265 -14 232 0 265 1 265 15 0 8 -27 82 -59 163 -32 81
-76 194 -96 252 -21 58 -50 138 -66 178 -34 84 -36 100 -12 81 10 -8 14 -9 10
-2 -4 6 -3 14 2 17 5 3 12 -4 16 -17 4 -14 8 -17 12 -9 8 20 43 -16 35 -36 -5
-15 -4 -15 11 -3 21 17 22 17 58 -56 16 -32 27 -51 25 -43 -11 32 -156 386
-166 402 -5 10 -10 20 -10 23 0 10 18 5 27 -7z m2978 -254 c61 -142 167 -392
234 -554 140 -336 262 -607 300 -664 30 -46 78 -77 124 -81 18 -1 32 -8 32
-14 0 -9 -65 -13 -237 -17 -237 -6 -281 0 -198 25 23 7 47 23 57 38 16 24 16
29 -6 92 -12 36 -53 140 -89 231 l-67 165 -303 3 -303 2 -28 -62 c-41 -91
-131 -348 -131 -374 0 -12 3 -30 6 -39 8 -21 58 -46 95 -47 16 -1 29 -6 29
-13 0 -8 -41 -14 -137 -18 -225 -11 -303 -9 -303 7 0 10 16 17 46 22 26 4 58
17 75 32 48 40 64 74 384 837 119 284 158 365 181 378 8 4 14 13 14 20 0 8 -4
6 -11 -3 -9 -13 -10 -13 -6 0 2 8 12 14 21 14 15 -2 22 27 17 77 -3 27 71 210
82 206 6 -2 61 -120 122 -263z m1109 121 c55 -60 147 -155 203 -210 55 -55
129 -131 164 -170 34 -38 212 -223 394 -410 182 -187 334 -348 338 -357 3 -10
11 -18 17 -18 17 0 8 1082 -9 1132 -17 54 -49 86 -105 106 -27 10 -51 23 -54
30 -3 9 47 12 217 12 190 0 221 -2 221 -15 0 -8 -9 -15 -20 -15 -12 0 -39 -9
-61 -21 -30 -15 -46 -32 -61 -66 -20 -45 -20 -62 -19 -744 1 -398 -3 -707 -8
-721 -9 -22 -20 -12 -188 157 -98 100 -306 316 -463 480 -156 165 -348 365
-425 445 -137 140 -183 195 -173 206 3 2 25 -17 50 -44 39 -43 48 -49 76 -44
17 2 29 8 26 13 -3 5 2 6 10 3 9 -3 16 -1 16 5 0 12 36 15 42 4 2 -5 16 -19
33 -33 16 -14 -63 71 -175 188 -113 118 -207 218 -209 224 -11 31 74 -41 163
-137z m2306 118 c7 -16 41 -95 75 -178 34 -82 99 -235 144 -338 45 -104 107
-250 137 -325 109 -268 177 -425 233 -535 54 -108 58 -113 110 -140 30 -15 63
-25 72 -22 20 7 36 -12 22 -26 -5 -5 -112 -8 -254 -7 l-244 3 47 22 c25 11 54
33 63 47 16 24 15 30 -24 143 -22 65 -60 168 -84 228 l-45 110 -305 3 -305 2
-40 -92 c-68 -159 -124 -335 -117 -369 8 -34 48 -59 95 -59 19 0 30 -5 30 -14
0 -10 -29 -15 -127 -20 -168 -8 -318 -1 -318 16 0 8 18 14 49 16 91 6 111 33
237 323 39 90 88 205 109 254 68 163 207 489 235 550 55 122 112 261 128 310
24 74 46 125 56 125 4 0 14 -12 21 -27z m-5315 -23 c0 -8 -10 -15 -22 -16 -41
-2 -81 -26 -93 -54 -15 -37 -12 -47 113 -335 130 -302 199 -461 292 -682 42
-101 80 -185 84 -188 5 -2 36 60 71 138 34 78 71 160 80 182 52 117 240 569
286 685 59 151 34 260 -60 260 -54 0 -23 17 42 23 160 16 372 4 372 -19 0 -10
-14 -14 -45 -14 -52 0 -100 -36 -140 -104 -23 -39 -185 -417 -265 -616 -21
-52 -67 -162 -103 -245 -35 -82 -93 -217 -127 -300 -81 -195 -129 -295 -140
-295 -13 0 -37 49 -129 263 -43 100 -138 317 -211 482 -73 165 -143 325 -155
355 -13 30 -44 99 -69 154 -47 101 -54 126 -36 126 16 0 62 52 53 59 -11 8
-13 42 -2 35 5 -3 9 3 9 13 0 14 2 15 9 4 6 -9 11 -10 15 -2 4 6 11 9 16 6 5
-3 11 3 15 14 3 10 14 26 25 36 11 10 20 22 20 27 0 4 -76 8 -170 8 -107 0
-170 -4 -170 -10 0 -5 -8 -10 -18 -10 -18 0 -42 18 -42 32 0 4 111 6 248 5
212 -2 247 -4 247 -17z m-2102 -21 c-31 -15 -47 -32 -62 -62 -18 -40 -19 -76
-25 -624 -4 -319 -4 -611 0 -648 4 -41 15 -78 28 -98 24 -36 105 -80 122 -66
12 10 24 2 24 -15 0 -8 -74 -10 -247 -8 -137 2 -250 6 -252 8 -9 9 6 13 63 16
51 3 62 7 80 31 21 28 21 37 23 584 2 375 6 560 13 568 8 9 7 14 -1 17 -9 3
-9 9 0 25 6 12 11 35 11 52 0 22 4 29 14 25 9 -3 17 3 21 15 8 25 25 28 25 4
0 -9 3 -13 7 -10 3 4 12 -1 19 -11 8 -12 13 -68 15 -170 1 -84 6 -152 11 -152
4 0 8 91 8 203 0 111 5 218 10 238 11 38 53 84 85 92 45 11 48 5 8 -14z
m-1058 4 c-40 -10 -84 -53 -95 -92 -6 -24 -9 -145 -8 -313 l3 -273 400 -5 400
-5 -412 -3 -413 -2 0 268 c1 147 5 287 9 311 14 70 65 122 116 120 l20 -1 -20
-5z m6041 -252 c5 -22 6 -23 19 -5 10 14 14 15 15 5 0 -8 3 -11 7 -8 3 4 12
-1 19 -11 11 -13 13 -105 14 -437 0 -231 3 -485 7 -565 l6 -145 32 -30 c35
-33 108 -62 113 -44 4 11 32 -8 32 -22 0 -5 -101 -9 -225 -9 -124 0 -225 4
-225 9 0 4 20 11 45 14 49 5 78 25 104 72 14 27 16 97 20 635 2 333 6 596 8
585 2 -11 6 -31 9 -44z m-6285 -193 c0 -122 2 -145 15 -145 10 0 14 7 11 19
-3 10 2 22 11 28 15 8 15 11 2 19 -8 6 -12 12 -9 15 9 9 26 -9 33 -34 5 -17 4
-21 -2 -11 -7 9 -12 10 -16 2 -4 -6 0 -14 8 -17 17 -7 22 -34 6 -34 -5 0 -7
-7 -3 -16 5 -13 8 -13 15 -2 6 8 7 1 3 -22 -4 -25 -3 -31 4 -20 7 11 10 6 9
-20 -1 -19 4 -36 10 -38 6 -2 9 -9 6 -15 -2 -7 0 -25 5 -42 l9 -30 1 28 1 27
113 1 c61 0 156 1 210 2 53 1 97 -1 97 -5 0 -5 -90 -8 -201 -8 l-200 0 3 -323
c3 -288 5 -326 21 -350 22 -33 67 -58 115 -61 25 -1 37 -7 37 -16 0 -12 -16
-15 -80 -13 -44 1 -158 2 -252 2 -103 1 -173 5 -173 11 0 5 20 7 48 3 46 -5
51 -3 85 31 21 20 37 44 37 54 0 9 2 168 4 352 2 184 5 436 5 559 1 123 3 222
6 219 3 -3 5 -70 6 -150z m6686 -1894 l-2 -528 -98 -1 -99 0 -1 525 -2 525
102 3 102 3 -2 -527z m1403 332 l0 -195 57 35 c73 44 120 56 211 56 94 0 161
-31 231 -107 63 -70 92 -143 98 -256 16 -266 -185 -449 -439 -399 -64 12 -129
40 -161 68 -17 15 -17 14 -11 -28 6 -38 5 -43 -10 -37 -10 4 -56 7 -102 7
l-84 0 0 520 0 519 98 4 c53 1 100 4 105 5 4 1 7 -85 7 -192z m-6670 -338 l0
-518 -96 0 -97 0 7 40 c7 46 -1 50 -33 16 -87 -93 -306 -92 -434 0 -183 133
-189 425 -12 597 60 58 133 89 240 101 91 9 93 9 139 -18 25 -15 54 -41 63
-59 l18 -32 6 80 c3 44 5 132 5 195 l-1 115 98 0 97 0 0 -517z m700 221 c54
-19 106 -57 136 -100 47 -68 54 -120 54 -391 l0 -248 -79 0 c-44 0 -86 -3 -95
-6 -13 -5 -16 2 -16 40 0 25 -3 46 -6 46 -3 0 -15 -11 -26 -25 -38 -48 -92
-67 -192 -67 -111 -1 -165 13 -213 55 -49 43 -73 99 -73 170 0 66 14 98 62
143 66 63 111 78 233 79 61 0 130 -2 155 -5 44 -4 45 -4 43 24 -3 39 -34 96
-67 120 -23 18 -42 21 -124 21 -86 0 -103 -3 -148 -27 l-52 -27 -36 54 c-20
30 -36 56 -36 58 0 12 155 80 210 92 73 17 214 13 270 -6z m1005 -9 c55 -23
103 -74 134 -140 26 -55 26 -56 26 -322 l0 -268 -82 0 c-45 0 -88 -3 -97 -6
-14 -5 -16 16 -16 203 0 241 -9 292 -65 348 -66 65 -154 60 -226 -14 -62 -65
-69 -98 -69 -338 l0 -198 -97 3 -98 3 3 356 c2 249 0 359 -8 368 -9 11 8 14
99 14 121 1 119 2 101 -58 -5 -19 -8 -37 -5 -39 2 -2 22 10 44 27 105 83 248
108 356 61z m922 0 c45 -20 153 -115 153 -134 0 -11 -131 -96 -146 -96 -3 0
-24 16 -46 35 -51 43 -97 59 -159 53 -147 -15 -233 -190 -156 -320 45 -78 115
-118 204 -118 24 0 54 5 66 11 36 19 77 62 77 81 0 10 2 18 5 18 10 0 165 -92
165 -97 0 -3 -21 -31 -47 -61 -79 -93 -211 -135 -355 -112 -143 22 -243 91
-301 209 -29 60 -32 74 -32 161 0 82 4 103 27 152 61 131 184 218 343 242 53
8 158 -5 202 -24z m827 -4 c124 -57 205 -199 206 -358 l0 -48 -290 0 c-325 0
-310 4 -268 -71 38 -68 123 -109 223 -109 60 0 135 32 142 60 3 11 8 20 10 20
3 0 37 -23 75 -52 l70 -52 -49 -47 c-65 -62 -132 -83 -263 -82 -165 0 -290 55
-357 156 -44 66 -57 115 -57 227 -1 84 2 102 27 155 58 124 175 205 332 229
58 8 148 -4 199 -28z m1251 19 c59 -17 145 -75 179 -120 l26 -34 -75 -46 -75
-47 -37 32 c-95 84 -222 81 -303 -6 -51 -55 -66 -111 -51 -184 25 -123 103
-192 220 -194 68 -1 105 19 133 73 9 18 18 35 21 37 3 3 42 -13 87 -36 l81
-41 -19 -31 c-33 -52 -95 -110 -137 -129 -151 -67 -362 -36 -474 69 -30 28
-61 71 -78 107 -24 53 -28 72 -28 160 0 94 2 105 34 170 59 119 153 194 281
221 76 17 158 17 215 -1z m977 -190 c-3 -210 6 -292 39 -333 69 -88 202 -95
268 -15 45 54 53 111 49 338 l-3 200 103 1 102 1 0 -378 0 -378 -97 2 -98 2
-5 55 -5 55 -22 -31 c-12 -16 -45 -43 -75 -60 -47 -26 -62 -29 -133 -28 -135
3 -229 51 -280 146 -27 49 -29 65 -36 198 -4 80 -8 207 -8 283 l-1 137 103 0
102 0 -3 -195z m5330 -1274 c26 -63 46 -90 112 -157 92 -92 162 -131 290 -164
89 -22 104 -30 59 -30 -40 0 -155 -35 -217 -67 -64 -33 -159 -122 -207 -196
-41 -64 -84 -181 -97 -267 l-8 -55 -7 50 c-29 201 -165 399 -326 476 -57 27
-158 59 -188 59 -45 0 -21 15 50 32 175 42 324 156 392 299 35 74 74 209 76
258 0 14 9 -17 20 -68 11 -52 34 -129 51 -170z"/>
<path d="M10846 6098 c-8 -24 -64 -173 -124 -333 -60 -159 -113 -300 -116
-312 l-7 -23 138 0 c76 0 195 -3 266 -7 107 -5 127 -4 127 8 0 8 -25 77 -55
153 -58 144 -179 475 -191 520 -10 41 -21 39 -38 -6z"/>
<path d="M14377 6123 c-7 -13 -212 -542 -238 -615 -13 -37 -21 -69 -18 -72 3
-3 123 -7 267 -9 189 -2 262 0 262 8 0 7 -18 56 -40 111 -23 54 -79 205 -126
334 -85 232 -97 260 -107 243z"/>
<path d="M13925 4031 c-77 -36 -115 -102 -115 -201 0 -135 79 -220 205 -220
126 0 192 86 183 235 -4 55 -11 84 -31 118 -47 80 -153 109 -242 68z"/>
<path d="M6665 4042 c-49 -23 -99 -78 -115 -128 -27 -81 6 -204 70 -258 39
-32 131 -60 173 -52 112 21 175 158 137 297 -33 118 -165 188 -265 141z"/>
<path d="M7569 3765 c-14 -8 -34 -25 -43 -39 -48 -74 22 -146 144 -146 105 0
148 39 157 141 l6 59 -119 0 c-83 -1 -127 -5 -145 -15z"/>
<path d="M10350 4059 c-52 -16 -100 -56 -121 -103 -10 -22 -19 -47 -19 -53 0
-10 47 -13 200 -13 225 0 217 -4 181 77 -34 73 -152 118 -241 92z"/>
</g>
</svg>
