<?xml version="1.0" encoding="UTF-8" standalone="no"?>
<svg
   version="1.1"
   width="1190.5511pt"
   height="1683.7795pt"
   id="svg35"
   viewBox="0 0 1190.5511 1683.7795"
   sodipodi:docname="лого.cdr"
   xmlns:inkscape="http://www.inkscape.org/namespaces/inkscape"
   xmlns:sodipodi="http://sodipodi.sourceforge.net/DTD/sodipodi-0.dtd"
   xmlns="http://www.w3.org/2000/svg"
   xmlns:svg="http://www.w3.org/2000/svg">
  <defs
     id="defs35" />
  <sodipodi:namedview
     id="namedview35"
     pagecolor="#ffffff"
     bordercolor="#000000"
     borderopacity="0.25"
     inkscape:showpageshadow="2"
     inkscape:pageopacity="0.0"
     inkscape:pagecheckerboard="0"
     inkscape:deskcolor="#d1d1d1"
     inkscape:document-units="pt" />
  <g
     id="Layer1000">
    <path
       d="m 660.6503,381.0563 c -16.098,7.0002 -21.8979,12.3012 -21.8979,20.1022 0,6.3008 1.1009,6.398 4.1989,0.3979 3.1011,-6.199 8.699,-12.5971 12.9019,-14.898 4.7971,-2.4999 11.899,-3.602 15.3992,-2.4021 4.5,1.5001 12.6989,10.402 16.4999,17.9022 1.6991,3.5 3.3001,6.0979 3.4999,5.8978 0.8,-0.8 -3.8009,-14.4998 -6.8008,-20.0968 -3.801,-7.2031 -7.801,-10.703 -12.0002,-10.703 -1.8009,0.1009 -7.098,1.703 -11.8009,3.7998 z"
       style="fill:#000000;fill-rule:evenodd"
       id="path1" />
    <path
       d="m 730.7521,380.5566 c 1.8981,3.1019 2.1992,4.6998 1.6991,8.8007 -2.1988,18.301 -29.4998,50.102 -50.5,58.8991 -11.1988,4.6009 -42.8009,21.7028 -41.8989,22.6009 0.3011,0.3991 16.7,-6.9999 42.7,-19.3978 17.8001,-8.403 38.9998,-28.203 47.5001,-44.3012 5.8,-11.1019 5.9998,-23.402 0.398,-28.4998 -2.0001,-1.8012 -2.0001,-1.6991 0.1017,1.8981 z"
       style="fill:#000000;fill-rule:evenodd"
       id="path2" />
    <path
       d="m 642.7523,411.6583 c 0,0.3982 1.3,2.3981 2.8982,4.598 1.6018,2.3001 3.2028,5.9021 3.6019,8.1012 0.601,3.1989 1.3,4.1989 4,5.3008 1.9999,0.898 4.1009,3.0001 5.601,5.5 1.199,2.3012 2.6988,4.0981 3.098,4.0981 1.601,0 8.4999,-3.8991 11.601,-6.4999 3.1998,-2.7 6.8009,-10.3992 5.8989,-12.7 -0.301,-0.8 -0.8991,-0.199 -1.5979,1.4998 -3.4021,8.7001 -12.2031,16.5002 -15.5001,13.801 -0.8011,-0.699 -1.703,-2.4999 -2.101,-4 -0.3989,-2.101 -1.3989,-3.1008 -3.7001,-3.6989 -2.6008,-0.8011 -3.4018,-1.8011 -4.699,-5.6021 -0.9997,-3.0968 -2.9018,-5.8 -5.3008,-7.8979 -2.101,-1.6991 -3.8001,-2.8009 -3.8001,-2.5001 z"
       style="fill:#000000;fill-rule:evenodd"
       id="path3" />
    <path
       d="m 608.0523,417.6584 c -12.7998,4.098 -17.1989,12.9999 -12.6989,25.6988 1.5979,4.5 1.5979,4.8011 -0.301,7.5002 -2.8001,4 -3.1989,5.6018 -2.1992,8.1989 1.0001,2.602 7.1992,5.6999 13.3991,6.6019 l 4,0.5001 -4.6021,-1.6988 c -2.5979,-0.9032 -5.398,-2.3012 -6.2968,-3.1023 -2.4021,-1.9998 -2.0002,-6.1007 0.8988,-9.1009 2.5002,-2.5979 2.5002,-2.7969 1.0001,-6.2969 -1.8989,-4.602 -1.8989,-12.903 -0.1021,-16.5001 2.1022,-4 6.7031,-8.102 12.3013,-10.8009 4.5,-2.1991 4.6009,-2.3011 1.8008,-2.3011 -1.6018,0 -4.8988,0.602 -7.2,1.3011 z"
       style="fill:#000000;fill-rule:evenodd"
       id="path4" />
    <path
       d="m 623.9513,419.2565 c 2.0001,1.101 5.199,3.7999 6.902,5.9998 1.7969,2.2031 4.2971,4.3002 5.5979,4.6009 1.5001,0.3992 2.3012,1.3992 2.3012,2.8012 0,1.0979 0.898,3.1989 1.9998,4.5981 2.8981,3.7029 2.3981,6.1007 -1.9998,10.101 -4.8992,4.5 -5.3992,8.801 -1.3989,13.3988 1.6988,2.101 2.1988,2.3 1.4998,0.8002 -2.3009,-4.6993 -0.703,-10.5001 4.1989,-15.1991 2.899,-2.601 2.8012,-4.6009 -0.2999,-9.801 -1.1021,-1.8981 -2.0001,-4.199 -2.0001,-5.1991 0,-1.1009 -1.1999,-2.3978 -2.9999,-3.1008 -1.6999,-0.7001 -3.8991,-2.5001 -5,-4.098 -2.399,-3.3012 -8,-6.9021 -10.6019,-6.9021 -1.2971,0.1009 -0.699,0.703 1.8009,2.0001 z"
       style="fill:#000000;fill-rule:evenodd"
       id="path5" />
    <path
       d="m 430.7525,439.8574 c -20.1019,3.0001 -24.9999,3.8009 -24.8012,4.5 0.3013,0.699 8.1014,9.102 23.6013,25.1991 l 7.4999,7.8009 7.399,-3.1011 c 11.101,-4.5977 11.101,-4.5977 6.6991,0.1012 -7.098,7.6989 -7.098,7.301 -0.5981,9.8989 15.5982,6.4021 29.5979,19.3 34.3009,31.703 0.8991,2.5001 0.5981,2.3981 -3.801,-1.7031 -2.6008,-2.4999 -5,-4.6998 -5.2999,-5.0978 -6.4999,-6.8012 -24.3012,-18.5 -35,-22.902 -18.6998,-7.7969 -33.8992,-7.899 -49.5,-0.5 -6.3992,3.1008 -20.4998,13.6009 -20.4998,15.4021 0,0.3979 7.9999,4.0977 17.6986,8.3009 l 17.6993,7.5969 6.2028,-6.0971 c 6.5001,-6.3008 9.7973,-8.602 12.3993,-8.602 1.1007,0 0.898,0.5001 -0.7002,1.8012 -2.7998,2.3008 -6.3,8.098 -6.3,10.3011 0,1.4998 1.0001,1.7968 6.601,1.7968 14.4998,0 29.9999,5.7031 39.1992,14.402 4.5,4.199 9.1999,10.5979 7.8988,10.5979 -0.199,0 -4.3008,-1.3989 -9.199,-2.9999 -18.1999,-6.0979 -39.8991,-7.9999 -52.801,-4.5981 -17.8988,4.8011 -31.5981,18 -38.1988,36.5001 -1.3014,3.8009 -1.3014,4.098 0.398,4.098 1,0 12.7026,-1.5979 26.102,-3.4999 13.3979,-1.899 24.6007,-3.5 24.9998,-3.5 0.398,0 0.398,1.9018 -0.102,4.1009 -0.5978,2.3009 -0.7971,4.301 -0.699,4.5 0.1992,0.1021 2.402,-1.101 4.801,-2.8009 14.601,-9.7999 32.5001,-15.8 39.3982,-13.199 2.4018,0.8989 1.9998,1.9999 -2.8982,8 -11.1999,13.8007 -25.7,41.6015 -32.5,62.3988 -18.3991,55.9998 -12.8991,112.9019 16.6008,169.9999 4.098,7.9999 8.2973,15.4998 9.1993,16.8001 1.6999,2.2 2.3989,2.3011 27.098,3.1997 2.3267,0.1007 8.7364,-0.1465 10.9024,-0.0734 -9.9751,-14.6027 -45.7713,-72.1032 -54.4023,-119.4264 -2.6994,-14.8989 -2.5001,-44.5 0.402,-57.7971 4.3988,-19.9028 11.3987,-36.301 22.5,-52.4999 6.5979,-9.801 15.6997,-20.9999 16.9999,-21.1019 0.3989,-0.1009 0.6999,0.8991 0.6999,2.1022 0,1.2968 1.101,12.7967 2.3981,25.5965 l 2.4018,23.3011 3.7001,5.199 c 8.1011,11.403 15.1991,22.6021 19.199,30.5 l 4.199,8.403 1.402,-2.903 c 5.5001,-10.597 9.2001,-30.1989 8.5,-44.0969 -1.1991,-20.4032 -9.199,-36.102 -26.199,-50.9998 -2.7031,-2.3008 -4.6009,-4.2029 -4.2029,-4.2029 0.402,0 3.5,1.402 6.9018,3.1008 7.899,4 19.5982,15.6019 22.301,22.199 l 1.8992,4.6017 5.8,-5.6018 c 5.3989,-5.5 5.6999,-5.597 5.6999,-3.0971 0,3.5972 -2.0001,13 -3.1019,14.398 -0.5001,0.699 2.6019,3.8991 8.801,9 5.4019,4.301 13.1989,11.399 17.4999,15.6022 4.301,4.2967 7.801,7.5968 7.801,7.4999 0,-0.203 0.898,-3.903 2.0001,-8.301 2.3,-8.9019 2.7998,-23 0.9998,-30.801 -1.899,-8.4999 -6.1019,-15.6988 -13.1998,-22.8007 -10.6991,-10.6991 -25.8001,-16.8982 -48.6012,-19.8981 -12.399,-1.6991 -9.8008,-3.1989 6.5002,-3.6989 15.3008,-0.5001 23.5,1.5001 30.4999,7.7969 l 4.6009,4 4.0981,-6.2969 4.102,-6.203 v 11.9999 l 14.699,5 c 8,2.7031 17.4016,6.3 20.8007,7.9999 l 6.199,3.0002 -1.5001,-6.5001 c -5.3007,-24.0001 -17.1986,-42.2969 -31.8985,-49.297 -6.3,-2.903 -7.6011,-3.2029 -16.3001,-3.102 -13.5,0.1021 -25.2,4.6021 -41.8011,16.1019 -3.4999,2.2972 -6.4998,4.2971 -6.5979,4.2971 -0.2029,0 0.5,-2.797 1.5979,-6.2969 3.9022,-12.602 5.1012,-20.1022 5.199,-33.2031 0.1021,-10.7968 -0.2968,-14.1998 -2.0979,-20.0001 -5.902,-18.7968 -19.902,-29.7969 -42.4018,-33.3989 -6.0001,-1.0001 -26.2973,-1.3008 -31.8982,-0.5 z"
       style="fill:#005c2f;fill-rule:evenodd"
       id="path6" />
    <path
       d="m 689.9514,460.2563 c -17.5002,10.3002 -27,20.0001 -27.801,28.203 l -0.5001,4.297 2.7031,-5 c 1.3989,-2.797 4.199,-6.9999 6.1988,-9.3989 3.801,-4.699 12.2001,-10.601 13.301,-9.3979 0.8992,0.9997 7.1992,28.4998 9.5001,41.7968 1.2971,7.101 1.7971,15.3 1.8989,28 0,16.8001 -0.1018,18.2999 -2.3009,22.5 -2.3009,4.5 -2.3009,4.5 -0.0981,2.0001 1.899,-2.2002 4.0981,-6.5982 7.6992,-15.0981 0.8989,-2.1989 2.3009,-2.9019 9.3008,-4.699 4.598,-1.1021 8.399,-1.9999 8.399,-1.9029 0.3002,1 11.8981,13.6998 12.4999,13.6998 0.5001,0 -1.8008,-4.297 -5.1018,-9.5978 -12.598,-19.902 -13.3979,-22.4022 -19.5,-58.102 -2.9999,-17.4999 -5.398,-31.8979 -5.398,-32.0969 0,-1.1021 -3.801,0.5969 -10.8009,4.7968 z"
       style="fill:#000000;fill-rule:evenodd"
       id="path7" />
    <path
       d="m 623.5524,485.7564 -0.6012,10.9999 4.0003,10 c 2.3008,5.5001 5.1009,12.7029 6.4017,16.0002 4.5981,11.9999 1.5001,-7.3993 -3.6008,-22.5 -1.5001,-4.7001 -3.5,-12.2973 -4.301,-17.0002 l -1.3989,-8.5 z"
       style="fill:#000000;fill-rule:evenodd"
       id="path8" />
    <path
       d="m 669.7523,492.6582 c 2.3,2.5982 2.4999,3.5002 2.4999,13.3982 0,7.102 -0.6018,13.102 -1.8009,17.801 l -1.8989,7.102 -13.6012,10 c -20.9999,15.2969 -26.801,19.2968 -28.0978,19.2968 -7.2938,2.4271 -20.1447,8.6174 -23.8011,15.5002 -1.0001,1.8 -2.101,8.7029 -2.9999,17.9019 -1.402,15.5979 -3.1989,24.5979 -6.3,30.598 -2.5002,4.9019 -3.2,5.402 -12.3009,8.4019 -12.1992,4.098 -19.0001,7.8981 -23.3992,13.301 -8.1989,9.898 -13.5,19.2971 -19.2999,33.7971 -4.301,10.9018 -3.602,11.4999 1.398,0.9998 8.4019,-17.5977 20.3009,-34.7969 28.1021,-40.3988 2.7998,-2.0001 6.4998,-3.5002 10.1988,-4.1989 3.1991,-0.6021 8.1992,-2.1991 11.101,-3.602 4.801,-2.3 54.2001,-16.5971 54.8991,-16.0002 0.1009,0.2002 -3.3009,5.6999 -7.598,12.301 -4.301,6.5001 -14,21.9999 -21.6011,34.3989 -7.4999,12.4022 -15.8009,25.9022 -18.301,29.9021 -8.301,13.5 -23.9998,30.5 -36.699,39.801 -6.9999,5.097 3.1992,2.6989 10.8,-2.4999 6.0981,-4.301 21.0979,-20.2031 29.8012,-31.7032 12.9999,-17.098 34.3989,-50.0978 45.3988,-69.8989 l 3.8001,-6.8009 4.801,0.6021 c 5.3989,0.6987 40.0978,9.9998 42.5979,11.3978 1.1991,0.7002 0.402,1.5001 -4,3.602 -7.0979,3.3009 -10.3991,7.3981 -17.6989,21.598 -5.1021,10.101 -17.0002,38.0001 -17.0002,39.8001 0,0.4028 2.1991,-3.3982 4.8002,-8.3001 3.899,-7.297 14.5978,-25.2 26.8988,-45 1,-1.6999 4.6012,-4.8988 8.1011,-7.2 3.399,-2.3 6.0979,-4.5969 6.0001,-5 -0.199,-0.398 -11.4021,-4.398 -24.9021,-8.898 -13.5981,-4.5 -25.4999,-8.602 -26.4999,-9.199 -2.0002,-1.1021 1.203,-2.203 24.1018,-8.2029 l 12.1011,-3.2 10.8989,8.102 c 17.3001,12.801 18.3002,13.801 19.601,18 1.0982,3.801 1.0001,4.098 -2.3009,8.301 -3.1991,3.8979 -11.8,16.2969 -38.0001,54.797 -4.6009,6.9018 -11.6988,17.1009 -15.8,22.7999 -3.9999,5.6021 -6.9999,10.5001 -6.6999,10.8009 0.301,0.301 4.2,-4.898 8.7,-11.6008 4.5,-6.7 18.2999,-25.598 30.7999,-42.0982 26.9999,-35.6989 29.2002,-38.9999 29.2002,-44.1989 0,-6.203 -2.5002,-9.9028 -11.3012,-16.903 -22.1989,-17.6989 -39.899,-36.3979 -45.801,-48.4999 -4.0978,-8.3001 -2.598,-18.699 5.3011,-38.5001 4.6009,-11.6988 5,-13.2999 4.6009,-19.2999 -0.402,-7.297 -2.4018,-10.7969 -7.9019,-13.8989 l -3.3979,-2.0001 z"
       style="fill:#000000;fill-rule:evenodd"
       id="path9" />
    <path
       d="m 619.3535,536.8574 c -1.1013,2.899 -0.6013,7.899 0.9998,10.3008 1.699,2.3012 8.598,6.0001 11.2971,6.0982 0.8008,0 -0.5981,-1.2972 -3.0979,-2.899 -5.6991,-3.6011 -8.1992,-7.3012 -8.1012,-11.6992 0.1009,-3.6989 -0.199,-4.1989 -1.0978,-1.8008 z"
       style="fill:#000000;fill-rule:evenodd"
       id="path10" />
    <path
       d="m 708.7522,585.2564 c 0,0.4019 1.398,1.3 3.0002,1.9998 9.398,3.9022 18.7999,21.7032 20.6988,39.1011 0.902,8.5 -0.199,12.3009 -5.199,17.8991 -2.399,2.7028 -5.5001,6.9018 -6.8989,9.2029 -3.9019,6.6989 -10.5001,31.199 -13.203,48.797 -1.0981,7.4018 0.402,4.1009 4,-9.0981 6.9021,-24.902 13.4019,-40.1989 18.8011,-43.9999 5.8008,-4.1989 8.1989,-12.1019 6.6988,-22.4022 -2.6989,-19.8989 -9.699,-34.6997 -18.2968,-39.1997 -3.8012,-2.0001 -9.6012,-3.3982 -9.6012,-2.3 z"
       style="fill:#000000;fill-rule:evenodd"
       id="path11" />
    <path
       d="m 606.2523,638.1582 c -7.6019,4.301 -22.3991,18 -37.1018,34.1991 -18.1992,19.9999 -18.898,20.8009 -21.2972,26.301 -2.6008,5.898 -10.402,16.4999 -16.4999,22.5978 -5.703,5.5 -5.902,6.8 -0.5001,3.8001 6.5002,-3.5969 15.899,-15.3981 15.899,-19.8981 0,-4.5 24.3981,-29.9018 53.4999,-55.8008 7.6992,-6.8981 14.199,-12.8982 14.3002,-13.301 0.6999,-1.6991 -3.5002,-0.597 -8.3001,2.1019 z"
       style="fill:#000000;fill-rule:evenodd"
       id="path12" />
    <path
       d="m 520.8533,695.8571 c -3.7029,3.1022 -5.3008,8.1992 -4,12.6992 1.8992,6.8009 1.1991,9.3008 -4.1009,14.4998 -3.4999,3.403 -5,5.7002 -5,7.6022 0,3.4999 1.5001,3.301 2.9999,-0.5 0.699,-1.6991 3.1992,-4.902 5.5001,-7.3012 5.398,-5.3008 6.101,-7.4999 3.9999,-13 -1.8989,-5 -1.1018,-9.301 2.6011,-14 2.598,-3.3009 1.8989,-3.3009 -2.0001,0 z"
       style="fill:#000000;fill-rule:evenodd"
       id="path13" />
    <path
       d="m 619.8038,820.4031 0.0493,0.2549 -3.801,18 c -3.9999,19 -4.5,20.0982 -11.4998,25.1994 -3.8002,2.8006 -10.1991,3.3007 -11.1992,0.8005 -2.6008,-6.6985 4.5,-27.3005 8.5,-24.8006 0.5981,0.3989 0.7971,2.1019 0.5,3.8988 -0.6009,2.8001 -0.301,3.4999 1.2972,4 4.801,1.5001 8.3009,-4.1998 6.1018,-9.5981 -2.3989,-5.6988 -12.4999,-6.1989 -19.8989,-0.9017 -9.2027,6.703 -13.8008,27.2029 -7.6008,33.9998 4.7999,5.3 16.1008,4.5 24.1007,-1.5981 l 4.3991,-3.4019 1.398,3.3001 c 2.7032,6.6019 11.4021,7.1019 18.402,1.1999 l 2.899,-2.3987 2.101,2.8987 c 3.098,4.2032 7.3009,4.7033 13.2001,1.7031 4.699,-2.4999 4.898,-2.4999 6.4999,-0.703 2.6991,2.9999 6.8,3.4018 11.6991,1.203 2.4018,-1.0001 4.902,-2.6019 5.6991,-3.4999 1.2027,-1.5001 1.4998,-1.5001 3.3009,0.7968 3.4999,4.5 12.1008,5.2999 18.902,1.902 9.5978,-4.8007 15.4998,-21.8007 11.2969,-32.199 -1.7969,-4.7029 -4.898,-6.6019 -9.7971,-5.9998 -2.9018,0.2968 -3.4999,0.097 -3.2029,-1.203 0.3011,-0.7971 0.703,-3.0983 1.1021,-5 1.3,-6.899 1.3978,-7.0002 5.601,-7.0002 2.0979,0 3.8988,-0.3988 3.8988,-0.7968 0,-0.0102 -0.003,-0.0309 -0.006,-0.0562 h -19.5928 c -1.0695,0.3802 -1.6274,1.0554 -1.9009,2.153 -0.3011,1.2002 -2.1019,9.5 -4,18.5 -3.7001,17.3013 -6.7,24.1999 -10.5001,24.1999 -2.6019,0 -2.6019,-1.2968 0.5,-15.3986 3.5002,-16.3982 3.6992,-15.6013 -3.801,-15.6013 h -6.1988 l -2.8012,13.2032 c -2.8009,13.3979 -4.5977,17.7967 -7.1988,17.7967 -2.1022,0 -1.8989,-2.4998 1.398,-17.1997 1.4998,-7.0972 2.602,-13 2.3009,-13.3002 -0.301,-0.2968 -3.3009,-0.5 -6.6991,-0.5 h -6.1019 l -2.3981,12.0002 c -1.3008,6.601 -2.7,11.9999 -3.1019,11.9999 -0.398,0 -1.5979,1.6012 -2.797,3.4999 -1.902,3.3001 -5.301,4.7032 -6.402,2.7031 -0.4935,-0.7906 7.0991,-37.5242 9.0272,-44.0561 z m 34.213,0 c 0.5565,0.6906 2.143,0.853 6.1333,0.853 h 6.4021 l 0.1423,-0.853 z m 42.7354,23.353 c 3.1011,3.7032 -1.5001,19.6013 -6.1018,21.0002 -3.8982,1.3 -4.1993,-0.7002 -1.8981,-11.2003 1.199,-5.398 2.3978,-10.0967 2.6988,-10.5967 0.6991,-1.203 4,-0.8014 5.3011,0.7968 z m 56.0001,-478.3986 c 0,1.199 1.9999,4.301 4.5,7.1019 5.1988,5.7971 9.8981,14.7971 12,23.2971 2.1988,8.9019 3.1988,19.7031 2.1988,23.5001 -2.0979,8.1008 -10.8989,16.9018 -26,25.7028 -6.5979,3.898 -7.6988,5.0001 -7.3009,6.7969 1.4021,5.402 3.602,23.7031 5.0001,41.0001 0.902,10.402 1.902,21.8001 2.2031,25.2031 0.6987,8.0969 5.2968,17.699 15.2968,31.7971 9.8011,13.9019 10.4021,14.9998 8.801,16.2997 -0.699,0.6021 -2.3008,1.3011 -3.6989,1.6022 -8.301,1.6988 -8.102,1.5979 -7.1022,3.3979 1.3011,2.4029 3.7032,20.4026 5.703,43.1997 l 1.5982,18.6009 -5,14.3992 c -15.3179,44.4169 -25.4353,72.7155 -29.164,81.6469 h 12.223 l 0.14,-1.5461 c 1.3008,-11.9999 10.9018,-46.601 22.5,-80.3979 5.7031,-16.7028 6.2028,-31.301 1.9999,-60.0001 l -1.7969,-12.9024 5.0978,-4.6993 5.1012,-4.699 -4.1011,-5.6018 c -5.5979,-7.5972 -14.6991,-24.3 -16.598,-30.3001 -0.902,-3.098 -2.3009,-16.7001 -3.6009,-36.5001 -1.1021,-17.297 -2.3011,-33.3989 -2.6022,-35.6998 l -0.5,-4.1992 6.3011,-3.1008 c 25.4022,-12.598 31.402,-32.5982 17.699,-59.0001 -4,-7.7969 -9.5981,-15.6999 -16.0979,-22.8991 -4.3002,-4.699 -4.8,-4.898 -4.8,-1.9998 z"
       style="fill:#000000;fill-rule:evenodd"
       id="path14" />
    <path
       d="m 508.8781,734.1267 h -14.29 v 87.0336 h 14.29 v -40.2622 h 18.8791 v 40.2622 h 14.29 v -87.0336 h -14.29 v 33.5115 h -18.8791 z m 38.9058,87.0336 h 15.3329 l 4.4853,-22.6624 h 16.1674 l 3.5461,22.6624 h 15.4372 l -16.6887,-87.0336 h -19.1922 z m 21.5912,-35.5609 6.8843,-40.5031 5.7367,40.5031 z m 31.5006,-51.4727 18.8711,87.0336 h 13.5187 l 18.824,-87.0336 H 637.3826 L 626.7739,790.105 616,734.1267 Z m 49.7537,87.0336 h 15.3329 l 4.4853,-22.6624 h 16.1674 l 3.5461,22.6624 h 15.4372 l -16.689,-87.0336 h -19.1919 z m 21.5912,-35.5609 6.8843,-40.5031 5.7367,40.5031 z m 39.3234,-51.4727 v 87.0336 h 13.3509 v -30.8597 c 0,-8.7996 -0.2087,-23.8677 -1.7734,-32.3059 h 0.1043 l 20.8613,63.1656 h 15.4372 v -87.0336 h -13.3512 v 30.8597 c 0,9.8847 0.2087,22.6624 1.7734,32.4266 h -0.1043 l -20.861,-63.2863 z m 53.7171,87.0336 h 15.3329 l 4.4852,-22.6624 h 16.1674 l 3.5462,22.6624 H 820.23 l -16.689,-87.0336 h -19.192 z m 21.5912,-35.5609 6.8842,-40.5031 5.7368,40.5031 z"
       style="fill:#1b1918;fill-rule:evenodd"
       id="path15" />
    <path
       d="m 700.835,547.5546 c -0.8623,-26.0376 -7.6984,-54.5199 -14.2319,-79.8032 l 11.55,-7.2 c 3.329,18.375 7.986,68.1202 20.0991,81.0051 z"
       style="fill:#009ee0;fill-rule:evenodd"
       id="path16" />
    <path
       d="m 594.1772,630.8785 c 9.7237,-7.3523 11.8355,-17.7359 12.6215,-29.107 1.7172,-24.8485 -0.9578,-26.4283 20.0546,-41.5151 l 12.2921,-8.6363 29.4069,-20.6606 c -21.4364,35.82 -6.5608,43.2626 20.8009,73.0967 z"
       style="fill:#ff2474;fill-rule:evenodd"
       id="path17" />
  </g>
  <g
     id="Layer1001">
    <path
       d="m 241.8647,1050.773 c -14.3237,2.1379 -17.814,2.7084 -17.6723,3.2066 0.2146,0.4981 5.7728,6.4859 16.8174,17.956 l 5.3442,5.5588 5.2723,-2.2098 c 7.9102,-3.2762 7.9102,-3.2762 4.7735,0.072 -5.0577,5.486 -5.0577,5.2022 -0.4262,7.0537 11.1147,4.5619 21.0904,13.7523 24.4417,22.5902 0.6406,1.7816 0.4262,1.709 -2.7084,-1.2135 -1.8533,-1.7811 -3.5629,-3.3488 -3.7766,-3.6326 -4.6315,-4.8461 -17.3161,-13.1822 -24.9398,-16.3189 -13.325,-5.5559 -24.1554,-5.6287 -35.2719,-0.3564 -4.5599,2.2096 -14.6075,9.6915 -14.6075,10.975 0,0.2835 5.7003,2.9198 12.6113,5.9149 l 12.612,5.4132 4.4199,-4.3446 c 4.6318,-4.4897 6.9813,-6.1293 8.8352,-6.1293 0.7844,0 0.6399,0.3562 -0.4988,1.2835 -1.995,1.6393 -4.4893,5.7702 -4.4893,7.3401 0,1.0686 0.7128,1.2805 4.7037,1.2805 10.3321,0 21.3769,4.0637 27.932,10.2622 3.2065,2.992 6.5555,7.5518 5.6284,7.5518 -0.1417,0 -3.0645,-0.9969 -6.5548,-2.1377 -12.9686,-4.3452 -28.4308,-5.7006 -37.6242,-3.2764 -12.754,3.4209 -22.5156,12.8262 -27.2193,26.0087 -0.9273,2.7084 -0.9273,2.92 0.2838,2.92 0.7125,0 9.0514,-1.1384 18.5993,-2.4938 9.5468,-1.3531 17.5296,-2.494 17.814,-2.494 0.2836,0 0.2836,1.3551 -0.0728,2.9223 -0.426,1.6393 -0.568,3.0645 -0.4979,3.2065 0.142,0.073 1.7115,-0.7846 3.4209,-1.9959 10.4043,-6.9831 23.1585,-11.2585 28.0738,-9.4053 1.7114,0.6406 1.4252,1.4252 -2.0651,5.7006 -7.9808,9.834 -18.3129,29.6439 -23.1585,44.4633 -13.1104,39.9034 -9.1914,80.4499 11.8292,121.1362 2.9203,5.7003 5.9124,11.0446 6.5551,11.9712 0.0776,0.1004 0.1522,0.1947 0.2287,0.2833 h 25.545 c -8.4955,-12.8542 -31.6419,-51.2485 -37.4609,-83.155 -1.9236,-10.6163 -1.7816,-31.709 0.2862,-41.1841 3.1344,-14.1822 8.1223,-25.8669 16.0329,-37.4096 4.7014,-6.984 11.1871,-14.9638 12.1135,-15.0367 0.2842,-0.072 0.4988,0.6408 0.4988,1.4981 0,0.9241 0.7844,9.1185 1.7087,18.2393 l 1.7115,16.6034 2.6365,3.7047 c 5.7725,8.1254 10.8302,16.1055 13.6806,21.7332 l 2.992,5.9878 0.999,-2.0687 c 3.9192,-7.5511 6.5557,-21.5187 6.0569,-31.4219 -0.8545,-14.5385 -6.555,-25.7251 -18.6685,-36.3407 -1.9263,-1.6396 -3.2784,-2.9949 -2.9949,-2.9949 0.2865,0 2.4941,0.9992 4.918,2.2096 5.6285,2.8501 13.9649,11.1174 15.8909,15.8183 l 1.3533,3.2789 4.133,-3.9916 c 3.8469,-3.9191 4.0615,-3.9882 4.0615,-2.2069 0,2.5632 -1.4253,9.2633 -2.2103,10.2595 -0.3564,0.4981 1.8539,2.7783 6.2713,6.4131 3.8491,3.0648 9.405,8.1225 12.4698,11.1176 3.0647,3.0616 5.5588,5.4132 5.5588,5.3443 0,-0.1448 0.6399,-2.7813 1.4252,-5.9152 1.6389,-6.343 1.995,-16.3891 0.7123,-21.9477 -1.3531,-6.0567 -4.348,-11.1863 -9.4058,-16.247 -7.6236,-7.6237 -18.3842,-12.0411 -34.6315,-14.1788 -8.835,-1.2106 -6.9836,-2.2792 4.6319,-2.6356 10.9029,-0.3563 16.7452,1.0689 21.7331,5.5559 l 3.2784,2.8502 2.9203,-4.487 2.9228,-4.4199 v 8.5505 l 10.4741,3.5629 c 5.7006,1.9263 12.3999,4.4893 14.8218,5.7006 l 4.4174,2.1377 -1.0691,-4.6318 c -3.777,-17.1015 -12.2552,-30.1393 -22.7297,-35.1274 -4.4891,-2.0685 -5.4164,-2.2822 -11.6149,-2.2103 -9.6196,0.073 -17.9567,3.2794 -29.7861,11.4738 -2.4938,1.6368 -4.6315,3.0618 -4.7014,3.0618 -0.1445,0 0.3564,-1.9929 1.1387,-4.487 2.7806,-8.9797 3.6348,-14.3239 3.7047,-23.6593 0.0726,-7.6933 -0.2117,-10.1182 -1.4951,-14.2514 -4.2055,-13.3939 -14.1815,-21.2322 -30.214,-23.7988 -4.2753,-0.7127 -18.7385,-0.9271 -22.7297,-0.3564 z"
       style="fill:#005c2f;fill-rule:evenodd"
       id="path18" />
    <path
       d="m 405.6821,1069.0847 c -11.471,4.9881 -15.6037,8.7656 -15.6037,14.3242 0,4.4897 0.7844,4.5591 2.9919,0.2835 2.2099,-4.4171 6.1987,-8.9763 9.1934,-10.6158 3.4184,-1.7814 8.4789,-2.5667 10.9732,-1.7115 3.2065,1.0688 9.0486,7.4121 11.757,12.7563 1.2109,2.494 2.3516,4.3452 2.4941,4.2025 0.57,-0.5698 -2.7084,-10.3318 -4.8461,-14.3203 -2.7084,-5.1326 -5.5586,-7.6264 -8.551,-7.6264 -1.2832,0.072 -5.0577,1.2134 -8.4088,2.7075 z"
       style="fill:#000000;fill-rule:evenodd"
       id="path19" />
    <path
       d="m 455.6344,1068.7286 c 1.3523,2.2105 1.5669,3.349 1.2106,6.2711 -1.5668,13.0407 -21.0206,35.7011 -35.9847,41.9696 -7.9798,3.2785 -30.4984,15.4647 -29.8557,16.1046 0.2145,0.2845 11.8999,-4.9878 30.4267,-13.8221 12.6837,-5.9878 27.79,-20.0967 33.8469,-31.5677 4.1327,-7.9107 4.2752,-16.6754 0.2836,-20.3079 -1.4252,-1.2834 -1.4252,-1.2108 0.0726,1.3524 z"
       style="fill:#000000;fill-rule:evenodd"
       id="path20" />
    <path
       d="m 392.9286,1090.8906 c 0,0.284 0.9264,1.709 2.0651,3.2766 1.1414,1.6389 2.2822,4.2055 2.5666,5.7725 0.4283,2.2795 0.9264,2.992 2.8502,3.7773 1.4252,0.6399 2.9223,2.1377 3.9912,3.919 0.8544,1.6398 1.9231,2.9203 2.2075,2.9203 1.1408,0 6.0567,-2.7785 8.2666,-4.6318 2.2799,-1.9238 4.8461,-7.41 4.2032,-9.0496 -0.2144,-0.57 -0.6406,-0.1417 -1.1385,1.0689 -2.4244,6.1992 -8.6957,11.7573 -11.045,9.834 -0.5707,-0.4982 -1.2134,-1.7814 -1.4971,-2.8502 -0.284,-1.4971 -0.9967,-2.2096 -2.6365,-2.6358 -1.8533,-0.5708 -2.424,-1.2835 -3.3483,-3.9919 -0.7125,-2.2066 -2.0677,-4.1327 -3.7771,-5.6277 -1.4973,-1.2107 -2.7079,-1.9957 -2.7079,-1.7816 z"
       style="fill:#000000;fill-rule:evenodd"
       id="path21" />
    <path
       d="m 368.2024,1095.1662 c -9.1205,2.92 -12.2552,9.2633 -9.0486,18.3122 1.1384,3.2065 1.1384,3.4209 -0.2146,5.3442 -1.9953,2.8504 -2.2795,3.9918 -1.567,5.8423 0.7125,1.8542 5.1299,4.0615 9.5477,4.7044 l 2.8502,0.3563 -3.2792,-1.2106 c -1.8511,-0.6435 -3.8464,-1.6398 -4.487,-2.2105 -1.7117,-1.425 -1.4252,-4.3471 0.6406,-6.485 1.7814,-1.8512 1.7814,-1.9929 0.7125,-4.487 -1.3531,-3.2791 -1.3531,-9.1943 -0.0726,-11.7575 1.4978,-2.8502 4.7763,-5.7732 8.7654,-7.6963 3.2065,-1.567 3.2784,-1.6396 1.2832,-1.6396 -1.1415,0 -3.4908,0.429 -5.1306,0.9271 z"
       style="fill:#000000;fill-rule:evenodd"
       id="path22" />
    <path
       d="m 379.5315,1096.3049 c 1.4254,0.7846 3.7046,2.7077 4.9182,4.2754 1.2805,1.5697 3.062,3.0641 3.9889,3.2784 1.0688,0.2843 1.6398,0.997 1.6398,1.996 0,0.7823 0.6399,2.2794 1.425,3.2764 2.0651,2.6385 1.7087,4.3473 -1.425,7.1977 -3.491,3.2065 -3.8474,6.2713 -0.9969,9.5474 1.2106,1.4972 1.5669,1.6389 1.0688,0.5703 -1.6396,-3.3485 -0.5011,-7.4819 2.9919,-10.8305 2.0658,-1.8532 1.9962,-3.2784 -0.2136,-6.9838 -0.7853,-1.3526 -1.4252,-2.9919 -1.4252,-3.7046 0,-0.7846 -0.855,-1.7085 -2.1377,-2.2096 -1.2113,-0.4988 -2.7783,-1.7816 -3.5629,-2.9201 -1.7094,-2.3522 -5.7004,-4.9182 -7.5545,-4.9182 -0.9242,0.072 -0.4979,0.5009 1.2832,1.4252 z"
       style="fill:#000000;fill-rule:evenodd"
       id="path23" />
    <path
       d="m 426.5611,1125.5199 c -12.4702,7.3397 -19.2394,14.2516 -19.8101,20.0967 l -0.3564,3.0618 1.9263,-3.5629 c 0.9967,-1.993 2.992,-4.9879 4.4169,-6.6973 2.7084,-3.3483 8.6935,-7.5539 9.4779,-6.6966 0.6408,0.7124 5.1298,20.308 6.7694,29.7829 0.9244,5.06 1.2807,10.9024 1.3531,19.952 0,11.9712 -0.0724,13.0398 -1.6396,16.0326 -1.6396,3.2066 -1.6396,3.2066 -0.0698,1.4253 1.353,-1.5677 2.9202,-4.7016 5.4862,-10.7584 0.6406,-1.5669 1.6395,-2.0678 6.6274,-3.3483 3.2764,-0.7853 5.9848,-1.4252 5.9848,-1.356 0.2139,0.7127 8.4782,9.7621 8.9072,9.7621 0.3561,0 -1.2833,-3.0621 -3.6355,-6.8391 -8.9768,-14.1815 -9.5468,-15.9631 -13.895,-41.4015 -2.1377,-12.47 -3.8465,-22.7295 -3.8465,-22.8713 0,-0.7853 -2.7084,0.4253 -7.6963,3.418 z"
       style="fill:#000000;fill-rule:evenodd"
       id="path24" />
    <path
       d="m 379.2475,1143.6905 -0.4285,7.838 2.8504,7.1258 c 1.6396,3.9193 3.6348,9.0517 4.5616,11.4012 3.2764,8.5508 1.0691,-5.2725 -2.5657,-16.0327 -1.0691,-3.3492 -2.494,-8.7626 -3.0648,-12.1139 l -0.9969,-6.0567 z"
       style="fill:#000000;fill-rule:evenodd"
       id="path25" />
    <path
       d="m 412.1678,1148.6085 c 1.6389,1.8514 1.7813,2.4941 1.7813,9.5473 0,5.0604 -0.4287,9.3358 -1.2832,12.6843 l -1.353,5.0605 -9.6918,7.1258 c -14.9638,10.8999 -19.0975,13.7503 -20.0216,13.7503 -5.1974,1.7292 -14.3543,6.1402 -16.9597,11.0448 -0.7128,1.2825 -1.4972,6.2012 -2.1377,12.756 -0.999,11.1145 -2.2795,17.5278 -4.4893,21.8032 -1.7814,3.493 -2.2802,3.8492 -8.7649,5.9868 -8.6928,2.9201 -13.5389,5.628 -16.6735,9.4779 -5.8424,7.053 -9.6196,13.7505 -13.7526,24.0828 -3.0647,7.7682 -2.5666,8.1944 0.9963,0.7123 5.9868,-12.5395 14.4657,-24.7951 20.0245,-28.7867 1.995,-1.4252 4.6318,-2.4943 7.2674,-2.9922 2.2796,-0.429 5.8423,-1.567 7.9099,-2.5667 3.4211,-1.6388 38.6214,-11.8264 39.1193,-11.4011 0.0719,0.1427 -2.3521,4.0617 -5.4139,8.7653 -3.0648,4.6318 -9.976,15.6764 -15.3923,24.5116 -5.3443,8.8372 -11.2592,18.4569 -13.0408,21.3073 -5.914,9.618 -17.0974,21.7291 -26.1458,28.3575 h 4.6851 c 1.0075,-0.5162 2.0364,-1.115 3.0061,-1.7781 4.3455,-3.0648 15.0337,-14.3961 21.2352,-22.5908 9.2635,-12.1833 24.5115,-35.6979 32.3498,-49.8075 l 2.7077,-4.8461 3.4212,0.429 c 3.8469,0.4979 28.5723,7.1255 30.3536,8.1218 0.8545,0.4988 0.2865,1.0688 -2.8501,2.5666 -5.0578,2.3521 -7.41,5.2717 -12.6116,15.3901 -3.6357,7.1975 -12.1139,27.0775 -12.1139,28.36 0,0.2872 1.567,-2.4212 3.4205,-5.9142 2.7782,-5.1995 10.4019,-17.9567 19.167,-32.0654 0.7128,-1.2115 3.2787,-3.4908 5.7728,-5.1306 2.4219,-1.6389 4.345,-3.2757 4.2754,-3.5629 -0.1418,-0.2835 -8.1248,-3.1337 -17.7444,-6.3402 -9.6895,-3.2068 -18.1704,-6.1296 -18.8829,-6.5551 -1.4252,-0.7853 0.8572,-1.5697 17.1741,-5.8451 l 8.6229,-2.2801 7.7662,5.7732 c 12.3275,9.1214 13.04,9.8342 13.9669,12.8261 0.7826,2.7084 0.7127,2.9203 -1.6394,5.915 -2.2796,2.7775 -8.4083,11.6128 -27.0777,39.0466 -3.2784,4.918 -8.3362,12.1854 -11.2585,16.2464 -2.8502,3.9918 -4.9879,7.4819 -4.7742,7.6963 0.2146,0.2146 2.9929,-3.4901 6.1994,-8.2663 3.2066,-4.7742 13.0398,-18.2403 21.947,-29.9978 19.2392,-25.4377 20.8071,-27.79 20.8071,-31.4947 0,-4.4199 -1.7816,-7.0564 -8.0529,-12.0445 -15.8183,-12.6115 -28.4308,-25.9356 -32.6363,-34.5592 -2.9198,-5.9142 -1.8512,-13.3242 3.7775,-27.4338 3.2784,-8.3362 3.5626,-9.477 3.2784,-13.7524 -0.2865,-5.1997 -1.7115,-7.6935 -5.6307,-9.9038 l -2.4212,-1.4254 z"
       style="fill:#000000;fill-rule:evenodd"
       id="path26" />
    <path
       d="m 376.2553,1180.1034 c -0.7846,2.0658 -0.4283,5.6284 0.7125,7.3399 1.2106,1.6398 6.1266,4.2756 8.0499,4.3455 0.5707,0 -0.4262,-0.9244 -2.2076,-2.0658 -4.0608,-2.566 -5.8423,-5.2027 -5.7725,-8.3364 0.072,-2.6358 -0.1417,-2.9919 -0.7823,-1.2832 z"
       style="fill:#000000;fill-rule:evenodd"
       id="path27" />
    <path
       d="m 439.9578,1214.5907 c 0,0.2865 0.9962,0.9264 2.1379,1.425 6.6966,2.7805 13.3962,15.4649 14.7493,27.8621 0.6428,6.0567 -0.1418,8.7651 -3.7047,12.7542 -1.7094,1.9261 -3.919,4.9181 -4.916,6.5578 -2.7803,4.7733 -7.4819,22.2312 -9.408,34.7711 -0.7823,5.2741 0.2866,2.9221 2.8505,-6.4829 4.918,-17.7444 9.5497,-28.6445 13.3968,-31.3529 4.1334,-2.9922 5.8424,-8.6236 4.7735,-15.9631 -1.9233,-14.1792 -6.9112,-24.7259 -13.0377,-27.9324 -2.7087,-1.4252 -6.8416,-2.4215 -6.8416,-1.6389 z"
       style="fill:#000000;fill-rule:evenodd"
       id="path28" />
    <path
       d="m 366.9199,1252.2868 c -5.4168,3.0648 -15.9605,12.8261 -26.4374,24.3691 -12.9681,14.2511 -13.466,14.8221 -15.1757,18.7411 -1.8532,4.2028 -7.412,11.7573 -11.7571,16.1025 -4.0639,3.9191 -4.2057,4.8455 -0.3563,2.7078 4.6317,-2.563 11.329,-10.9723 11.329,-14.1788 0,-3.2065 17.3853,-21.3068 38.1221,-39.7617 5.486,-4.9152 10.1178,-9.1908 10.1899,-9.4778 0.4986,-1.2108 -2.4943,-0.4253 -5.9145,1.4978 z"
       style="fill:#000000;fill-rule:evenodd"
       id="path29" />
    <path
       d="m 306.0676,1293.4011 c -2.6386,2.2105 -3.777,5.8423 -2.8502,9.0489 1.3533,4.8461 0.8545,6.6274 -2.9221,10.3321 -2.494,2.4248 -3.5629,4.0617 -3.5629,5.417 0,0.8527 0.1249,1.3969 0.3322,1.6364 h 0.6196 c 0.3531,-0.2719 0.7695,-0.9374 1.1859,-1.9927 0.4979,-1.2107 2.2795,-3.4928 3.919,-5.2025 3.8465,-3.7773 4.3473,-5.3442 2.8502,-9.2633 -1.353,-3.5629 -0.7851,-6.6276 1.8535,-9.9759 1.8512,-2.3523 1.3531,-2.3523 -1.4252,0 z"
       style="fill:#000000;fill-rule:evenodd"
       id="path30" />
    <path
       d="m 471.3109,1057.8984 c 0,0.8542 1.425,3.0647 3.2065,5.0604 3.7045,4.1309 7.053,10.544 8.5508,16.6009 1.5668,6.343 2.2795,14.0395 1.5668,16.7452 -1.4949,5.7725 -7.7662,12.0438 -18.5268,18.3151 -4.7014,2.7774 -5.4857,3.5627 -5.2022,4.8432 0.999,3.8494 2.5666,16.8899 3.5629,29.2152 0.6426,7.412 1.3553,15.5341 1.5697,17.9589 0.4979,5.7696 3.7743,12.6116 10.9001,22.6574 6.9838,9.9062 7.412,10.6885 6.2713,11.6147 -0.4981,0.4291 -1.6396,0.9273 -2.6358,1.1416 -5.915,1.2106 -5.7732,1.1387 -5.0607,2.4213 0.9271,1.7124 2.6388,14.5383 4.0637,30.7826 l 1.1387,13.2544 -3.5626,10.2604 c -10.9152,31.6499 -19.9367,55.1972 -22.5935,61.5614 h 8.7097 l 0.0997,-1.1017 c 0.9269,-8.5508 9.5804,-36.5889 17.8449,-60.6713 4.0637,-11.902 4.4199,-22.3042 1.4252,-42.7541 l -1.2805,-9.1938 3.6325,-3.3486 3.6351,-3.3483 -2.9226,-3.9918 c -3.9886,-5.4134 -10.4739,-17.3152 -11.8272,-21.5908 -0.6426,-2.2074 -1.6393,-11.8998 -2.5657,-26.0087 -0.7853,-12.3251 -1.6398,-23.7988 -1.8541,-25.4384 l -0.3564,-2.9922 4.49,-2.2096 c 18.1005,-8.977 22.3759,-23.2283 12.6115,-42.0413 -2.8501,-5.5559 -6.8393,-11.1873 -11.4708,-16.3172 -3.0641,-3.3483 -3.4202,-3.49 -3.4202,-1.4249 z"
       style="fill:#000000;fill-rule:evenodd"
       id="path31" />
    <path
       d="m 434.3163,1187.7257 c -0.6143,-18.5534 -5.4855,-38.849 -10.1412,-56.865 l 8.2302,-5.1306 c 2.3722,13.0935 5.6906,48.5403 14.3219,57.7216 z"
       style="fill:#009ee0;fill-rule:evenodd"
       id="path32" />
    <path
       d="m 358.3157,1247.0994 c 6.9288,-5.2388 8.4334,-12.6378 8.9937,-20.7405 1.2236,-17.7062 -0.6826,-18.8319 14.2901,-29.5822 l 8.759,-6.154 20.9544,-14.7221 c -15.2748,25.5242 -4.6752,30.8276 14.822,52.0863 z"
       style="fill:#ff2474;fill-rule:evenodd"
       id="path33" />
    <g
       id="Layer1002">
      <path
         d="m 551.017,1105.4698 h -20.2281 v 123.1994 h 20.2281 v -56.9927 h 26.724 v 56.9927 h 20.2281 V 1105.4698 H 577.741 v 47.4368 h -26.724 z m 55.0727,123.1994 h 21.7043 l 6.349,-32.0796 h 22.8856 l 5.0197,32.0796 h 21.852 l -23.6235,-123.1994 h -27.1674 z m 30.5632,-50.3379 9.7449,-57.3338 8.1206,57.3338 z m 44.5903,-72.8615 26.7128,123.1994 h 19.1362 l 26.6462,-123.1994 H 732.92 l -15.0169,79.2394 -15.2509,-79.2394 z m 70.4283,123.1994 h 21.7043 l 6.3491,-32.0796 h 22.8856 l 5.0197,32.0796 h 21.8519 l -23.6239,-123.1994 h -27.167 z m 30.5632,-50.3379 9.7449,-57.3338 8.1206,57.3338 z m 55.6637,-72.8615 v 123.1994 h 18.8988 v -43.6831 c 0,-12.4562 -0.2954,-33.7857 -2.5103,-45.7302 h 0.1477 l 29.53,89.4133 h 21.8519 v -123.1994 h -18.8991 v 43.683 c 0,13.9922 0.2953,32.0796 2.5102,45.9012 H 889.28 l -29.5296,-89.5842 z m 76.0387,123.1994 h 21.7043 l 6.3491,-32.0796 h 22.8856 l 5.0197,32.0796 h 21.8519 l -23.6239,-123.1994 h -27.167 z m 30.5632,-50.3379 9.7449,-57.3338 8.1206,57.3338 z"
         style="fill:#1b1918;fill-rule:evenodd"
         id="path34" />
      <path
         d="m 587.9622,1243.2279 0.0698,0.3607 -5.3804,25.4797 c -5.6621,26.8954 -6.37,28.4498 -16.2786,35.6708 -5.3792,3.9644 -14.4371,4.6722 -15.8527,1.1332 -3.6816,-9.4821 6.3699,-38.6449 12.032,-35.1062 0.8466,0.5645 1.1283,2.9753 0.7078,5.5188 -0.8507,3.9636 -0.4261,4.9543 1.8361,5.6621 6.7961,2.1235 11.7504,-5.945 8.6375,-13.5865 -3.3959,-8.0668 -17.6942,-8.7746 -28.1677,-1.2764 -13.0268,9.4885 -19.5356,38.5069 -10.7593,48.1282 6.7945,7.5023 22.7913,6.3699 34.1155,-2.2623 l 6.2271,-4.8154 1.979,4.6714 c 3.8264,9.3452 16.1401,10.053 26.0487,1.6985 l 4.1036,-3.3954 2.9741,4.1032 c 4.3853,5.9498 10.3347,6.6576 18.6853,2.4107 6.6516,-3.5386 6.9333,-3.5386 9.2008,-0.9951 3.8207,4.2465 9.6257,4.8155 16.5606,1.7029 3.3998,-1.4156 6.9389,-3.6831 8.0672,-4.9543 1.7025,-2.1234 2.123,-2.1234 4.6726,1.128 4.9543,6.3699 17.1292,7.5022 26.7565,2.6924 13.5861,-6.7957 21.9406,-30.8597 15.9912,-45.579 -2.5435,-6.6572 -6.9333,-9.3452 -13.8681,-8.493 -4.1077,0.4202 -4.9543,0.1373 -4.5338,-1.7029 0.4261,-1.1283 0.9951,-4.3857 1.5601,-7.0777 0.9337,-4.9547 2.1727,-9.9267 3.2112,-11.1653 h -17.2078 c -2.5612,0 -2.5091,1.7085 -3.0572,4.0398 -0.9911,4.2156 -3.2787,14.2602 -5.5951,25.2442 -5.2376,24.4906 -9.4841,34.2559 -14.8633,34.2559 -3.6831,0 -3.6831,-1.8357 0.7078,-21.7974 4.9547,-23.2122 5.2364,-22.0843 -5.3804,-22.0843 h -8.7747 l -3.9652,18.6897 c -3.9648,18.9653 -6.5083,25.192 -10.1902,25.192 -2.9758,0 -2.6881,-3.5386 1.9789,-24.3469 2.1231,-10.0463 3.6832,-18.402 3.257,-18.8269 -0.4261,-0.4202 -4.6726,-0.7079 -9.4828,-0.7079 h -8.6375 l -3.3946,16.9868 c -1.8413,9.344 -3.8219,16.9863 -4.3909,16.9863 -0.5634,0 -2.2619,2.2667 -3.9592,4.9543 -2.6924,4.6714 -7.5039,6.6577 -9.0623,3.8264 -0.6986,-1.1191 10.049,-53.117 12.7783,-62.3631 z m 108.9235,33.057 c 4.3898,5.242 -2.1234,27.7464 -8.6374,29.7266 -5.5181,1.8402 -5.9442,-0.9911 -2.6868,-15.8544 1.6973,-7.6411 3.3942,-14.2923 3.8203,-15.0001 0.9895,-1.7029 5.6622,-1.1344 7.5039,1.1279 z"
         style="fill:#000000;fill-rule:evenodd"
         id="path35" />
    </g>
  </g>
</svg>
